<svg xmlns="http://www.w3.org/2000/svg" viewBox="0 0 48 48" role="img" aria-label="WhatsApp">
  <rect x="8" y="8" width="32" height="32" rx="10" fill="#25D366"/>
  <path d="M24 14c-5.3 0-9.6 4.1-9.6 9.2 0 1.6.4 3.1 1.1 4.5L14 34l6.5-1.7c1.1.6 2.4.9 3.7.9 5.3 0 9.6-4.1 9.6-9.2S29.3 14 24 14z" fill="#fff" opacity=".15"/>
  <path d="M24 16.5c-4 0-7.3 3.1-7.3 6.9 0 1.3.4 2.6 1.1 3.7l-.7 3 3.2-.8c1 .6 2.3.9 3.6.9 4 0 7.3-3.1 7.3-6.9S28 16.5 24 16.5z" fill="#fff"/>
  <path d="M28.7 26.6c-.2.5-1.1 1-1.6 1.1-.4.1-.9.2-1.6 0-1.7-.4-3.9-2.3-5-3.8-.5-.6-1.4-2-1.4-3.3 0-.7.3-1.4.7-1.8.2-.2.4-.3.7-.3h.5c.2 0 .4 0 .6.5l.7 1.7c.1.2.1.4 0 .6l-.3.4c-.1.2-.2.4-.1.6.3.7 1.2 1.8 2 2.4.6.5 1.7 1.1 2.4 1.3.2.1.4 0 .5-.1l.6-.7c.2-.2.4-.2.6-.1l1.8.8c.3.1.4.3.3.7z" fill="#25D366"/>
</svg>
